<?xml version="1.0" encoding="utf-8"?>
<!-- Generator: Adobe Illustrator 21.0.1, SVG Export Plug-In . SVG Version: 6.00 Build 0)  -->
<svg version="1.1" id="Layer_1" xmlns="http://www.w3.org/2000/svg" xmlns:xlink="http://www.w3.org/1999/xlink" x="0px" y="0px"
	 viewBox="0 0 34 27" style="enable-background:new 0 0 34 27;" xml:space="preserve">
<style type="text/css">
	.st0{fill:#75D4F9;}
	.st1{fill:#FFFFFF;}
	.st2{fill:#EFE94D;}
	.st3{fill:#513B2F;}
	.st4{fill:#84533A;}
</style>
<g>
	<g>
		<g>
			<rect x="0.4" y="6" class="st0" width="33.2" height="20.9"/>
		</g>
		<g>
			<rect x="0.4" y="12.9" class="st1" width="33.2" height="7"/>
		</g>
	</g>
	<g>
		<g>
			<g>
				<path class="st2" d="M18.2,16.7L18.2,16.7l1.8,0.9l-1.9-0.7l0,0c0,0,0,0,0,0.1l1.6,1.2l-1.7-1c0,0,0,0,0,0.1l1.4,1.5l-1.5-1.3
					l0,0l1.1,1.7l-1.2-1.6c0,0,0,0-0.1,0l0.7,1.9l-0.8-1.8c0,0,0,0-0.1,0l0,0l0.3,2l-0.5-1.9l0,0c0,0,0,0-0.1,0l-0.1,2l-0.1-2l0,0
					l0,0l-0.5,2l0.3-2l0,0c0,0,0,0-0.1,0l-0.9,1.8l0.7-1.9l0,0l0,0l-1.2,1.6l1-1.7l0,0c0,0,0,0-0.1,0L14.7,19l1.4-1.5l0,0l0,0
					l-1.7,1.1l1.6-1.2c0,0,0,0,0-0.1l-2,0.4l1.8-0.9l0,0l-2,0.3l1.9-0.5v-0.1l-2-0.1l2-0.1c0,0,0,0,0-0.1l-1.9-0.4l2,0.3
					c0,0,0,0,0-0.1L14,15.2l1.9,0.7l0,0l-1.6-1.2l1.7,1c0,0,0,0,0-0.1l-1.4-1.5l1.5,1.4l0,0L15,13.8l1.2,1.6c0,0,0,0,0.1,0l-0.7-1.9
					l0.8,1.8c0,0,0,0,0.1,0l-0.3-2l0.5,1.9h0.1l0.1-2l0.1,2c0,0,0,0,0.1,0l0.4-2l-0.3,2h0.1l0.8-1.8l-0.7,1.9l0,0l1.2-1.6l-1,1.7
					l0,0c0,0,0,0,0.1,0l1.5-1.4l-1.4,1.5l0,0l0,0l1.7-1.1l-1.6,1.2l0,0c0,0,0,0,0,0.1l0,0l1.9-0.7l-1.6,1l0,0l0,0l2-0.3l-1.9,0.5
					l0,0c0,0,0,0,0,0.1l2,0.1l-2,0.1l0,0l0,0l2,0.5L18.2,16.7L18.2,16.7z"/>
			</g>
			<g>
				<path class="st3" d="M18.2,16.7L18.2,16.7L18.2,16.7l1.8,0.9l0,0l-1.9-0.7l0,0l0,0l0,0l0,0V17l0,0l1.6,1.2l0,0l-1.7-1l0,0v0.1
					l0,0l1.4,1.5l0,0l-1.5-1.3l0,0l0,0l0,0l1.1,1.7l0,0l-1.2-1.6l0,0h-0.1l0,0l0.7,1.9l0,0l-0.9-1.8l0,0h-0.1l0,0l0,0l0,0l0.3,2l0,0
					l-0.5-2l0,0h-0.1l0,0l-0.1,2l0,0l-0.1-2l0,0l0,0l0,0l-0.5,2l0,0l0.3-2l0,0l0,0l0,0l0,0h-0.1l0,0l-0.9,1.8l0,0l0.7-1.9l0,0l0,0
					l0,0l0,0l0,0l0,0l-1.2,1.6l0,0l1-1.7l0,0l0,0l0,0h-0.1l0,0l-1.5,1.4l0,0l1.4-1.5l0,0l0,0l0,0l0,0l0,0l0,0l-1.7,1.1l0,0l1.6-1.2
					l0,0v-0.1l0,0L14,17.7l0,0l1.8-0.9l0,0l0,0l0,0l-2,0.3l0,0l1.9-0.5l0,0v-0.1l0,0l-2-0.1l0,0l2-0.1l0,0v-0.1l0,0l-1.9-0.4l0,0
					l2,0.3l0,0c0,0,0,0,0-0.1l0,0L14,15.3l0,0l1.9,0.7l0,0l0,0l0,0l-1.6-1.2l0,0l1.7,1l0,0v-0.1l0,0l-1.4-1.5l0,0l1.5,1.4l0,0l0,0
					l0,0L15,13.9l0,0l1.2,1.6l0,0h0.1l0,0l-0.7-1.9l0,0l0.8,1.8l0,0h0.1l0,0l-0.3-2l0,0l0.5,1.9l0,0h0.1l0,0l0.1-2l0,0l0.1,2l0,0
					h0.1l0,0l0.4-1.9l0,0l-0.3,2l0,0h0.1l0,0l0.8-1.8l0,0l-0.7,1.9l0,0l0,0l0,0l1.2-1.6l0,0l-1,1.7l0,0l0,0l0,0l0,0h0.1l0,0l1.5-1.4
					l0,0l-1.4,1.5l0,0l0,0l0,0l1.7-1.1l0,0L18,15.8l0,0v0.1l0,0l0,0l0,0l1.9-0.7l0,0L18.2,16l0,0l0,0l0,0l2-0.3l0,0l-1.9,0.5l0,0
					l0,0l0,0l0,0v0.1l0,0l2,0.1l0,0l-2,0.1l0,0l0,0l0,0l2,0.5l0,0L18.2,16.7L18.2,16.7L18.2,16.7L18.2,16.7z M18.2,16.7L18.2,16.7
					l2,0.3l0,0l-2-0.5l0,0l0,0l0,0l0,0l0,0l2-0.1l0,0l-2-0.1l0,0l0,0v-0.1l0,0l0,0l0,0l0,0l1.9-0.5l0,0l-2,0.3l0,0l0,0l0,0l0,0l0,0
					l1.8-0.9l0,0L18,15.8l0,0l0,0l0,0l0,0l0,0v-0.1l0,0l0,0l1.6-1.2l0,0l-1.7,1.1l0,0l0,0l0,0l0,0l0,0l1.4-1.5l0,0l-1.5,1.4l0,0l0,0
					h-0.1l0,0l0,0l0,0l0,0l1-1.7l0,0l-1.2,1.6l0,0l0,0l0,0l0,0l0,0l0.7-1.9l0,0l-0.8,1.8l0,0l0,0h-0.1l0,0l0,0l0.3-2l0,0l-0.4,1.9
					l0,0l0,0h-0.1l0,0l0,0l-0.1-2l0,0l-0.1,2l0,0l0,0h-0.1l0,0l0,0l-0.5-1.9l0,0l0.3,2l0,0l0,0h-0.1l0,0l0,0l-0.8-1.8l0,0l0.7,1.9
					l0,0l0,0h-0.1l0,0l0,0l-1.2-1.6l0,0l1.1,1.7l0,0l0,0l0,0l0,0l0,0l-1.5-1.4l0,0l1.4,1.5l0,0l0,0v0.1l0,0l0,0l-1.7-1l0,0l1.6,1.2
					l0,0l0,0l0,0l0,0l0,0l-2-0.6l0,0l1.8,0.8l0,0l0,0v0.1l0,0l0,0l-2-0.3l0,0l1.9,0.5l0,0l0,0v0.1l0,0l0,0l-2,0.1l0,0l2,0.1l0,0l0,0
					v0.1l0,0l0,0l-1.9,0.5l0,0l2-0.3l0,0l0,0l0,0l0,0l0,0L14,17.7l0,0l1.9-0.7l0,0l0,0v0.1l0,0l0,0l-1.6,1.2l0,0l1.7-1.1l0,0l0,0
					l0,0l0,0l0,0l0,0l0,0l-1.4,1.5l0,0l1.5-1.4l0,0l0,0h0.1l0,0l0,0l0,0l0,0l0,0l-1,1.7l0,0l1.2-1.6l0,0l0,0l0,0l0,0l0,0l0,0l0,0
					l-0.7,1.9l0,0l0.9-1.8l0,0l0,0h0.1l0,0l0,0l0,0l0,0l-0.3,2l0,0l0.5-2l0,0l0,0l0,0l0,0l0,0l0.1,2l0,0l0.1-2l0,0l0,0h0.1l0,0l0,0
					l0.5,2l0,0l-0.3-2l0,0l0,0l0,0l0,0l0,0h0.1l0,0l0,0l0.8,1.8l0,0l-0.7-1.9l0,0l0,0h0.1l0,0l0,0l1.2,1.6l0,0l-1.1-1.7l0,0l0,0l0,0
					l0,0l0,0l1.5,1.3l0,0L18,17.2l0,0l0,0v-0.1l0,0l0,0l1.7,1l0,0L18.1,17l0,0l0,0v-0.1l0,0l0,0l0,0l0,0l1.9,0.7l0,0L18.2,16.7
					L18.2,16.7L18.2,16.7L18.2,16.7z"/>
			</g>
		</g>
	</g>
	<g>
		<g>
			<path class="st4" d="M17.2,16.1c0.2-0.2,0.5-0.2,0.6,0l0,0C17.7,16,17.6,16,17.5,16C17.4,15.9,17.3,16,17.2,16.1L17.2,16.1z"/>
		</g>
		<g>
			<path class="st4" d="M17.3,16.1c0.1-0.1,0.3-0.1,0.4,0l0,0l0,0C17.6,16.2,17.4,16.2,17.3,16.1z M17.3,16.1c0.1,0.1,0.3,0.1,0.4,0
				l0,0C17.6,16,17.4,16,17.3,16.1z"/>
		</g>
		<g>
			<circle class="st4" cx="17.5" cy="16.1" r="0.1"/>
		</g>
		<g>
			<path class="st4" d="M17.2,16.1c0.1,0.1,0.2,0.1,0.3,0.1c0.1,0,0.2,0,0.3-0.1c-0.1,0.1-0.2,0.1-0.3,0.1
				C17.4,16.2,17.3,16.2,17.2,16.1z"/>
		</g>
		<g>
			<path class="st4" d="M16.9,16.1C16.8,16,16.7,16,16.6,16s-0.2,0.1-0.3,0.1l0,0C16.4,15.9,16.7,15.9,16.9,16.1L16.9,16.1z"/>
		</g>
		<g>
			<path class="st4" d="M16.8,16.1c-0.1-0.1-0.3-0.1-0.4,0l0,0C16.5,16.2,16.6,16.2,16.8,16.1z M16.8,16.1c-0.1,0.1-0.3,0.1-0.4,0
				l0,0l0,0C16.5,16,16.7,16,16.8,16.1z"/>
		</g>
		<g>
			<circle class="st4" cx="16.6" cy="16.1" r="0.1"/>
		</g>
		<g>
			<path class="st4" d="M16.8,16.1c-0.1,0.1-0.2,0.1-0.3,0.1c-0.1,0-0.2,0-0.3-0.1c0.1,0.1,0.2,0.1,0.3,0.1
				C16.7,16.2,16.8,16.2,16.8,16.1z"/>
		</g>
		<g>
			<path class="st4" d="M17.9,16c-0.1-0.2-0.4-0.2-0.6-0.1c-0.1,0.1-0.1,0.2-0.1,0.3c0,0.1,0,0.2,0.1,0.3l0,0
				c-0.1-0.1-0.1-0.2-0.1-0.3c0-0.1,0-0.3,0.2-0.3C17.4,15.7,17.7,15.7,17.9,16L17.9,16z"/>
		</g>
		<g>
			<path class="st4" d="M16.8,16.5c0,0.1,0,0.1,0.1,0.1s0.1,0,0.2,0h0.1h0.1c0.1,0,0.1-0.1,0.1-0.1l0,0c0.1,0,0,0.2-0.1,0.1
				c-0.1,0-0.1,0-0.2,0s-0.1-0.1-0.2,0S16.7,16.6,16.8,16.5L16.8,16.5z"/>
		</g>
		<g>
			<path class="st4" d="M17.3,16.9c-0.1-0.1-0.2-0.1-0.3-0.1c-0.1,0-0.2,0-0.3,0.1l0.1-0.1c0.1,0,0.1,0,0.2,0c0,0,0.1,0,0.2,0
				C17.3,16.8,17.3,16.9,17.3,16.9z"/>
		</g>
		<g>
			<path class="st4" d="M16.8,16.9c0.1,0,0.1,0,0.2,0s0.1,0,0.2,0h-0.1H17C17,16.9,16.9,16.9,16.8,16.9z"/>
		</g>
		<g>
			<path class="st4" d="M17.3,16.9c0,0-0.1,0-0.1,0.1l-0.1,0.1c-0.1,0-0.2-0.1-0.3-0.1c0.1,0,0.2,0.1,0.3,0.1c0.1,0,0.1,0,0.1-0.1
				C17.2,17,17.3,16.9,17.3,16.9z"/>
		</g>
		<g>
			<path class="st4" d="M16.8,17.2c0-0.1,0.1-0.1,0.2-0.1s0.2,0.1,0.2,0.2C17.2,17.1,16.9,17.1,16.8,17.2z"/>
		</g>
		<g>
			<path class="st4" d="M16.8,16.5c0.1-0.1,0.1-0.2,0.1-0.3c0-0.1,0-0.3-0.1-0.3c-0.2-0.1-0.5,0-0.6,0.1l0,0
				c0.1-0.2,0.4-0.3,0.7-0.1c0.1,0,0.1,0.1,0.1,0.2S16.9,16.4,16.8,16.5L16.8,16.5z"/>
		</g>
	</g>
</g>
</svg>
