<?xml version="1.0" encoding="utf-8"?>
<!-- Generator: Adobe Illustrator 21.0.1, SVG Export Plug-In . SVG Version: 6.00 Build 0)  -->
<svg version="1.1" id="Capa_1" xmlns="http://www.w3.org/2000/svg" xmlns:xlink="http://www.w3.org/1999/xlink" x="0px" y="0px"
	 viewBox="0 0 467.4 467.4" style="enable-background:new 0 0 467.4 467.4;" xml:space="preserve">
<style type="text/css">
	.st0{fill:#23EAE6;}
	.st1{fill:#F6EF98;}
	.st2{fill:#1B7FBD;}
	.st3{fill:#112F91;}
	.st4{fill:#FFFFFC;stroke:url(#SVGID_1_);stroke-miterlimit:10;}
	.st5{fill:#EB2685;}
</style>
<circle class="st0" cx="60" cy="338" r="43.3"/>
<circle class="st1" cx="359" cy="212.3" r="67.6"/>
<circle class="st2" cx="206.7" cy="388.1" r="79.3"/>
<circle class="st3" cx="179.8" cy="98.8" r="75.1"/>
<g>
	<g>
		<g>
			<g>
				<linearGradient id="SVGID_1_" gradientUnits="userSpaceOnUse" x1="19.625" y1="233.8" x2="447.7033" y2="233.8">
					<stop  offset="0" style="stop-color:#FFFFFF"/>
					<stop  offset="1" style="stop-color:#000000"/>
				</linearGradient>
				<path class="st4" d="M353.1,447.2c-5.5,0-14.8-1-27.6-3c-12.6-1.9-28.4-6.8-47-14.5c-18.7-7.8-40.3-19.6-64.2-35.2
					c-23.8-15.6-49.6-37.4-76.7-64.7l-0.1-0.1c-21.5-21.2-39.6-41.7-53.6-61c-14.1-19.3-25.6-37.4-34.1-53.7s-15-31.2-19.2-44.3
					c-4.2-13.2-7.1-24.6-8.6-34c-1.5-9.2-2.1-16.5-1.8-21.5c0.3-6,0.4-8.2,0.5-9.1c0.5-3.4,1.7-6.9,3.4-10.4c1.7-3.5,3.7-6.4,6-8.4
					l0.2-0.1L93,24.5c2.8-2.8,5.7-4.1,9-4.1c2.2,0,4.1,0.6,5.7,1.8c2.2,1.7,4.1,3.7,5.7,6.2l50.3,95.4c1.8,3.2,2.3,6.6,1.4,10.5
					c-0.9,4.4-2.8,7.9-5.7,10.8l-23,23c-1.6,1.6-2.8,3.7-3.7,6.4c-0.8,2.3-1.1,4.3-1.1,6.2v0.8l0.1,0.8c1.4,7.4,4.5,15.7,9.2,24.8
					c4,7.9,10,17.5,18.1,28.6s19.6,24.1,34.3,38.4c14.3,14.7,27.3,26.3,38.6,34.5c11.3,8.2,20.9,14.4,28.7,18.3
					c8.2,4.2,14.4,6.6,19.1,7.6l6.7,1.3h0.8c1.6,0,3.4-0.4,5.7-1.1c2.7-0.9,4.8-2.1,6.4-3.7l26.6-27.1c4-3.5,8.6-5.2,13.9-5.2
					c4.7,0,7.1,0.9,8.3,1.6l2,1.2h0.5l88.7,52.4c4.4,2.7,6.9,5.9,7.8,9.7c0.5,4.5-0.8,8-4.2,11.4l-62.7,62.2l-0.2,0.2
					c-2.1,2.3-4.9,4.3-8.4,6c-3.6,1.7-7.1,2.9-10.5,3.4c-0.6,0-1.4,0.1-2.9,0.3C357.5,447.1,355.9,447.2,353.1,447.2z"/>
				<path class="st5" d="M101.9,28.7c0.3,0,0.5,0,0.5,0s0,0,0.1,0.1c1.4,1,2.5,2.2,3.5,3.7l50,94.8l0.1,0.2l0.1,0.2
					c0.7,1.2,1,2.4,0.5,4.6c-0.6,2.7-1.6,4.8-3.4,6.5l-23,23c-2.5,2.5-4.4,5.7-5.8,9.7c-1.1,3.2-1.6,6.1-1.6,8.9v1.6l0.3,1.6
					c1.6,8.3,4.8,17.1,10,27.1c4.2,8.4,10.4,18.2,18.8,29.8c8.3,11.5,20.2,24.8,35.1,39.4c14.6,15,28,26.9,39.6,35.4
					c11.8,8.6,21.6,14.8,29.8,19c9,4.6,15.8,7.2,21.3,8.3l5.9,1.2l1.7,0.3h1.7c2.6,0,5.2-0.5,8.4-1.6c4-1.3,7.2-3.2,9.7-5.8l0.1-0.1
					l0.1-0.1l26.3-26.8c2.4-2,4.9-2.9,8.1-2.9c2.7,0,3.8,0.4,4.1,0.5l3.9,2.4h0.5l86.6,51.2c2.8,1.7,3.5,3.1,3.8,3.8
					c0.1,1.4-0.3,2.4-1.8,3.9L374.5,431l-0.3,0.3l-0.3,0.4c-1.3,1.5-3.3,2.8-5.8,4.1c-2.7,1.3-5.3,2.2-7.8,2.6
					c-0.7,0-1.5,0.1-2.7,0.2c-0.6,0.1-1.9,0.2-4.4,0.2c-3.5,0-10.9-0.5-26.4-2.9c-11.9-1.8-27-6.5-45-14
					c-18.2-7.6-39.4-19.2-62.8-34.5c-23.3-15.3-48.7-36.6-75.3-63.6l-0.1-0.1l-0.1-0.1c-21.2-20.9-39-41.1-52.8-60
					c-13.9-19-25.1-36.7-33.5-52.7c-8.3-15.8-14.6-30.3-18.6-43c-4.1-12.7-6.9-23.8-8.3-32.7c-1.7-10.8-1.9-16.6-1.7-19.7
					c0.3-5,0.4-7.4,0.5-8.7c0.4-2.4,1.3-5,2.6-7.6c1.2-2.5,2.6-4.5,4.1-5.8l0.3-0.3l0.3-0.3L99,30.2
					C100.5,28.7,101.4,28.7,101.9,28.7 M101.9,11.7c-5.6,0-10.7,2.2-15.1,6.6L24.3,80.8c-3.1,2.8-5.8,6.5-8,11.1
					c-2.2,4.5-3.6,9-4.2,13.4c0,0.6-0.2,3.8-0.5,9.4s0.3,13.4,1.9,23.3s4.5,21.6,8.9,35.3s11,28.9,19.8,45.6
					c8.8,16.8,20.4,35,34.8,54.8s32.6,40.5,54.6,62.1c27.6,27.9,53.6,49.9,78.1,65.9s46.3,28,65.6,36c19.3,8,35.6,13,48.9,15.1
					c13.3,2,23,3.1,28.9,3.1c2.5,0,4.5-0.1,6.1-0.2c1.6-0.2,2.5-0.2,2.8-0.2c4.4-0.6,8.9-2,13.4-4.2s8.2-4.9,11.1-8l62.6-62.1
					c5.3-5.3,7.5-11.6,6.6-18.8c-1.3-6.3-5.2-11.4-11.8-15.5L353.1,293h-0.5c-3.1-1.9-7.4-2.8-12.7-2.8c-7.5,0-14.1,2.5-19.8,7.5
					L293.4,325c-0.6,0.6-1.6,1.2-3.1,1.6c-1.4,0.5-2.4,0.7-3.1,0.7l-5.9-1.2c-3.9-0.8-9.6-3.1-16.9-6.8c-7.4-3.8-16.5-9.6-27.5-17.6
					s-23.5-19.2-37.6-33.6c-14.4-14.1-25.6-26.6-33.4-37.4c-7.8-10.8-13.6-20-17.4-27.5c-4.4-8.5-7.2-16-8.5-22.6
					c0-0.9,0.2-2.1,0.7-3.5s1-2.4,1.6-3.1l23-23c4.1-4.1,6.7-9.1,8-15.1s0.5-11.4-2.4-16.5l-50.3-95.5c-2.2-3.4-4.9-6.4-8-8.7
					C109.6,12.8,106,11.7,101.9,11.7L101.9,11.7z"/>
			</g>
		</g>
	</g>
</g>
</svg>
