<?xml version="1.0" encoding="utf-8"?>
<!-- Generator: Adobe Illustrator 21.0.1, SVG Export Plug-In . SVG Version: 6.00 Build 0)  -->
<svg version="1.1" id="Layer_1" xmlns="http://www.w3.org/2000/svg" xmlns:xlink="http://www.w3.org/1999/xlink" x="0px" y="0px"
	 viewBox="0 0 445 533.1" style="enable-background:new 0 0 445 533.1;" xml:space="preserve">
<style type="text/css">
	.st0{fill:#E62C67;}
</style>
<path d="M424,337.1c0,4.4-3.6,8-8,8s-8-3.6-8-8s3.6-8,8-8S424,332.7,424,337.1z"/>
<path class="st0" d="M395.9,407.1l16.9-25.6c22.1-33.5,14.6-77.5-16.7-98.1c-30.4-20-73.2-10.4-95.6,21.5l0.4,0.3l-0.4-0.3
	l-86.8,131.6c-27.7,42-81.7,55.5-120.4,30S45.6,386,73.3,344l11.9-18.1c7.3,4.8,17.3,2.8,26.6-11.2l14.5-22c2.6,1,5.1,1.9,7.7,2.8
	c45.6,14.9,95.5,0.5,121.3-38.6l4.8-7.2l-6.7-4.4l61.4-93.8c10.6-16.1,8.1-37.5-5.9-50.8c-2.3-1.9-4.6-3.7-7.1-5.4
	c0.4-5.7-2.3-11.3-7.1-14.4c-6.4-4.3-15-3.3-20.4,2.3c-5.4,5.6-6,14.2-1.4,20.5s12.9,8.4,19.9,5c2.4,1.6,4.6,3.4,6.7,5.4
	c7,8.1,7.7,19.8,1.9,28.7l-61.4,93.8l-6.7-4.4l-4.9,7.4c-17.8,25.8-50.2,37.1-80.2,27.8c-7.8-2.2-15.3-5.6-22.1-10.1l-0.3-0.2
	c-6.9-4.6-13.1-10.1-18.3-16.6c-19.8-24.5-29.9-62.9-12.7-89l4.9-7.4l-6.7-4.4L154.8,46c6-9,17.3-12.9,27.5-9.5
	c2.6,1.2,5.2,2.5,7.6,4c-0.3,5.6,2.4,11,7.1,14.1c7.4,4.9,17.3,2.8,22.2-4.6s2.8-17.3-4.6-22.2c-4.8-3.2-10.9-3.5-16-0.8
	c-2.5-1.6-5.1-3.1-7.7-4.4c-17.8-7.9-38.7-1.8-49.4,14.5l-61.7,93.5l-6.7-4.4l-4.8,7.2c-25.8,39.1-19.4,90.7,12.3,126.7
	c1.8,2.1,3.7,4,5.6,6l-14.5,22c-9.2,14-7.2,24,0.1,28.8L60,335.2c-32.5,49.4-21.6,114.3,24.4,144.6c46,30.3,110,14.8,142.5-34.5
	L313.5,314c8.3-11.9,20.6-20.3,34.7-23.8c13.3-3.3,27.4-1,39,6.4c23.9,15.8,29.4,49.9,12.2,76l-16.9,25.6
	c-19.1-7.6-40.8,0.4-50.3,18.6c-9.5,18.2-3.7,40.6,13.4,51.9c17.1,11.3,40.1,7.8,53-8.1C411.6,444.7,410.4,421.6,395.9,407.1z
	 M354.4,455.4c-11.1-7.3-14.1-22.2-6.8-33.2s22.2-14.1,33.2-6.8c11.1,7.3,14.1,22.2,6.8,33.2C380.3,459.6,365.5,462.7,354.4,455.4z"
	/>
</svg>
