<?xml version="1.0" encoding="utf-8"?>
<!-- Generator: Adobe Illustrator 21.0.1, SVG Export Plug-In . SVG Version: 6.00 Build 0)  -->
<svg version="1.1" id="Layer_1" xmlns="http://www.w3.org/2000/svg" xmlns:xlink="http://www.w3.org/1999/xlink" x="0px" y="0px"
	 viewBox="0 0 34 27" style="enable-background:new 0 0 34 27;" xml:space="preserve">
<style type="text/css">
	.st0{fill:#E83434;}
	.st1{fill:#43AF50;}
	.st2{fill:#28292B;}
	.st3{fill:#FFFFFF;}
</style>
<g>
	<g>
		<g>
			<rect x="0.4" y="5.6" class="st0" width="33.2" height="20.9"/>
		</g>
		<g>
			<rect x="0.4" y="15.7" class="st1" width="33.2" height="10.8"/>
		</g>
		<g>
			<rect x="0.4" y="12.5" class="st2" width="33.2" height="7"/>
		</g>
	</g>
	<g>
		<g>
			<polygon class="st3" points="19.5,15 20.9,17.1 18.6,16.2 21,15.5 19.4,17.5 			"/>
		</g>
		<g>
			<path class="st3" d="M18.9,17.4c-0.4,0.8-1.1,1.1-2,1.1c-1.4,0-2.5-1.1-2.5-2.5s1.1-2.5,2.5-2.5c1.1,0,1.9,0.5,2.2,1.4
				c-0.4-0.6-0.9-0.9-1.7-0.9c-1.1,0-2.1,0.9-2.1,2.1c0,1.1,0.9,2.1,2.1,2.1C18.1,18.1,18.5,17.9,18.9,17.4z"/>
		</g>
	</g>
</g>
</svg>
