<?xml version="1.0" encoding="utf-8"?>
<!-- Generator: Adobe Illustrator 21.0.1, SVG Export Plug-In . SVG Version: 6.00 Build 0)  -->
<svg version="1.1" id="Layer_1" xmlns="http://www.w3.org/2000/svg" xmlns:xlink="http://www.w3.org/1999/xlink" x="0px" y="0px"
	 viewBox="0 0 365.3 512" style="enable-background:new 0 0 365.3 512;" xml:space="preserve">
<style type="text/css">
	.st0{display:none;}
	.st1{fill:#D50065;}
	.st2{fill:#FFFFFF;stroke:#FFFFFF;stroke-width:9;stroke-miterlimit:10;}
	.st3{font-family:'OCRAExtended';}
	.st4{font-size:371.6868px;}
</style>
<g class="st0">
</g>
<g>
	<path id="Facebook_Places" class="st1" d="M323.8,158c-1.5-5.7-4.6-11.9-6.9-17.2C289.3,74.7,229.2,51,180.6,51
		C115.6,51,44,94.6,34.5,184.4v18.4c0,0.8,0.3,7.6,0.6,11.1c5.4,42.8,39.1,88.3,64.4,131.1c27.1,45.9,55.3,91,83.2,136.1
		c17.2-29.4,34.4-59.3,51.2-87.9c4.6-8.4,9.9-16.8,14.5-24.9c3.1-5.3,8.9-10.7,11.6-15.7c27.1-49.7,70.8-99.8,70.8-149.1v-20.3
		C330.8,177.9,324.2,159.2,323.8,158z"/>
	<text transform="matrix(1 0 0 1 68.4657 335.6019)" class="st2 st3 st4">+</text>
</g>
</svg>
