<?xml version="1.0" encoding="utf-8"?>
<!-- Generator: Adobe Illustrator 21.0.1, SVG Export Plug-In . SVG Version: 6.00 Build 0)  -->
<svg version="1.1" id="Capa_1" xmlns="http://www.w3.org/2000/svg" xmlns:xlink="http://www.w3.org/1999/xlink" x="0px" y="0px"
	 viewBox="0 0 375 375" style="enable-background:new 0 0 375 375;" xml:space="preserve">
<style type="text/css">
	.st0{fill:none;stroke:#D40064;stroke-width:4;stroke-miterlimit:10;}
</style>
<g>
	<g id="Guides_For_Artboard_19_">
	</g>
	<g id="Artwork_18_">
	</g>
	<g id="Layer_2_18_">
		<g>
			<path class="st0" d="M250.6,124.6V4.5c0-1.1-0.9-2-2-2h-72.4h-49.5c-1.1,0-2,0.9-2,2v120H2.8c0,0,0,21.1,0,47.2L3,249.6
				l121.8,0.8v120c0,1.1,0.9,2,2,2h49.5h72.4c1.1,0,2-0.9,2-2v-120h122.1l0.5-125.5L250.6,124.6z M249.1,180.7
				c-2.8,17.3-23.5,36.8-40.2,52.5c0,0-8.3,8.3-10.8,10.5c-1.9,1.6-6,4.9-10.4,4.9s-8.5-3.2-10.4-4.9c-2.5-2.1-10.8-10.5-10.8-10.5
				c-16.7-15.7-37.4-35.1-40.2-52.5c-2-12.2,0-22.3,5.8-30c5.9-7.7,14.9-12.2,27.4-13.5c1.2-0.1,2.3-0.2,3.4-0.2
				c8.9,0,17.9,3.3,24.7,8.9c6.9-5.6,15.9-8.9,24.7-8.9c1.1,0,2.2,0.1,3.4,0.2c12.6,1.3,21.5,5.8,27.4,13.5
				C249.1,158.3,251.1,168.4,249.1,180.7z"/>
		</g>
	</g>
</g>
</svg>
