<?xml version="1.0" encoding="utf-8"?>
<!-- Generator: Adobe Illustrator 21.0.1, SVG Export Plug-In . SVG Version: 6.00 Build 0)  -->
<svg version="1.1" id="design" xmlns="http://www.w3.org/2000/svg" xmlns:xlink="http://www.w3.org/1999/xlink" x="0px" y="0px"
	 viewBox="0 0 266.7 153.2" style="enable-background:new 0 0 266.7 153.2;" xml:space="preserve">
<style type="text/css">
	.st0{fill:#e6e9f0;}
</style>
<g>
	<polygon class="st0" points="264.4,90.9 262.6,93.9 266.7,96.2 266.7,92.2 	"/>
	<polygon class="st0" points="262.6,107.6 266.7,110 266.7,106 264.3,104.6 	"/>
	<polygon class="st0" points="262.6,121.4 266.7,123.8 266.7,119.8 264.3,118.4 	"/>
	<polygon class="st0" points="262.6,135.2 266.7,137.6 266.7,133.5 264.3,132.2 	"/>
	<polygon class="st0" points="262.2,153.2 266.7,150.6 266.7,146.6 255.2,153.2 	"/>
	<rect x="182.8" y="88.2" class="st0" width="3.5" height="58.2"/>
	<rect x="194.8" y="81.3" class="st0" width="3.5" height="72"/>
	<rect x="206.7" y="74.6" class="st0" width="3.5" height="78.7"/>
	<rect x="218.6" y="67.5" class="st0" width="3.5" height="85.8"/>
	<rect x="230.6" y="74.6" class="st0" width="3.5" height="78.7"/>
	<rect x="242.5" y="81.3" class="st0" width="3.5" height="72"/>
	<rect x="254.5" y="88.2" class="st0" width="3.5" height="58.2"/>
	<polygon class="st0" points="165.1,149.8 171.1,153.2 178,153.2 166.9,146.8 	"/>
	<rect x="73.4" y="151.2" class="st0" width="3.5" height="2.1"/>
	<rect x="85.3" y="144.1" class="st0" width="3.5" height="9.2"/>
	<rect x="97.2" y="151.2" class="st0" width="3.5" height="2.1"/>
	<rect x="56.1" y="57.2" transform="matrix(0.5 -0.866 0.866 0.5 -45.7514 93.1702)" class="st0" width="3.5" height="58.1"/>
	<rect x="50" y="60.5" transform="matrix(0.5 -0.866 0.866 0.5 -57.6918 93.0995)" class="st0" width="3.5" height="72"/>
	<rect x="44.1" y="64" transform="matrix(0.5 -0.866 0.866 0.5 -69.632 93.1518)" class="st0" width="3.5" height="85.7"/>
	<polygon class="st0" points="83.8,140.6 0,92.2 0,96.2 82.1,143.6 	"/>
	<polygon class="st0" points="72.1,147.6 0,106 0,110 70.4,150.6 	"/>
	<polygon class="st0" points="0,123.8 51,153.2 58,153.2 0,119.8 	"/>
	<polygon class="st0" points="0,137.6 27.1,153.2 34.1,153.2 0,133.5 	"/>
	<polygon class="st0" points="3,144.9 0,146.6 0,150.6 4.8,147.9 	"/>
	<polygon class="st0" points="12.4,153.2 15.9,153.2 15.1,151.7 	"/>
	<polygon class="st0" points="221.2,23.6 262.2,0 255.2,0 219.5,20.6 	"/>
	<polygon class="st0" points="221.2,37.4 266.7,11.2 266.7,7.2 219.5,34.4 	"/>
	<polygon class="st0" points="221.2,51.2 266.7,25 266.7,21 219.5,48.2 	"/>
	<polygon class="st0" points="221.2,65 266.7,38.8 266.7,34.8 219.5,62 	"/>
	<polygon class="st0" points="233,72 266.7,52.6 266.7,48.5 231.2,69 	"/>
	<polygon class="st0" points="244.8,78.9 266.7,66.3 266.7,62.3 243.1,75.9 	"/>
	<polygon class="st0" points="256.9,85.8 266.7,80.1 266.7,76.1 255.2,82.8 	"/>
	<rect x="194.8" y="0" class="st0" width="3.5" height="0.2"/>
	<rect x="206.7" y="0" class="st0" width="3.5" height="6.9"/>
	<rect x="218.6" y="0" class="st0" width="3.5" height="13.7"/>
	<rect x="230.6" y="0" class="st0" width="3.5" height="6.9"/>
	<rect x="242.5" y="0" class="st0" width="3.5" height="0.2"/>
	<polygon class="st0" points="217.2,22.6 178,0 171.1,0 215.4,25.6 	"/>
	<rect x="183.4" y="-16.1" transform="matrix(0.5 -0.866 0.866 0.5 75.3273 170.261)" class="st0" width="3.5" height="72"/>
	<rect x="177.4" y="-12.6" transform="matrix(0.5 -0.866 0.866 0.5 63.3865 170.3133)" class="st0" width="3.5" height="85.7"/>
	<rect x="171.5" y="-9.1" transform="matrix(0.5 -0.866 0.866 0.5 51.4464 170.3358)" class="st0" width="3.5" height="99.4"/>
	<rect x="165.6" y="8" transform="matrix(0.5 -0.866 0.866 0.5 39.5064 170.4202)" class="st0" width="3.5" height="85.9"/>
	<rect x="159.6" y="25.3" transform="matrix(0.5 -0.866 0.866 0.5 27.566 170.3857)" class="st0" width="3.5" height="72.1"/>
	<rect x="153.6" y="42.5" transform="matrix(0.5 -0.866 0.866 0.5 15.6252 170.3326)" class="st0" width="3.5" height="58.2"/>
	<rect x="83.2" y="82.5" transform="matrix(0.866 -0.5 0.5 0.866 -27.1027 67.3549)" class="st0" width="57.9" height="3.5"/>
	<rect x="82.2" y="92.8" transform="matrix(0.866 -0.5 0.5 0.866 -31.4539 71.7449)" class="st0" width="71.8" height="3.5"/>
	<rect x="81.3" y="103.1" transform="matrix(0.866 -0.5 0.5 0.866 -35.8118 76.1282)" class="st0" width="85.7" height="3.5"/>
	<rect x="80.4" y="113.5" transform="matrix(0.866 -0.5 0.5 0.866 -40.1901 80.4885)" class="st0" width="99.4" height="3.5"/>
	<rect x="93" y="123.9" transform="matrix(0.866 -0.5 0.5 0.866 -44.5918 84.8304)" class="st0" width="85.9" height="3.5"/>
	<polygon class="st0" points="172.3,116.4 109.8,152.5 110.2,153.2 115.5,153.2 174.1,119.4 	"/>
	<polygon class="st0" points="172.3,130.2 132.5,153.2 139.4,153.2 174.1,133.2 	"/>
	<rect x="49.5" y="11.6" class="st0" width="3.5" height="58.2"/>
	<rect x="61.4" y="4.7" class="st0" width="3.5" height="72.1"/>
	<rect x="73.4" y="0" class="st0" width="3.5" height="83.5"/>
	<rect x="85.3" y="0" class="st0" width="3.5" height="90.4"/>
	<rect x="97.2" y="0" class="st0" width="3.5" height="83.5"/>
	<rect x="109.2" y="4.7" class="st0" width="3.5" height="72.1"/>
	<rect x="121.1" y="11.6" class="st0" width="3.5" height="58.2"/>
	<polygon class="st0" points="60.1,1.2 58,0 51,0 58.4,4.2 	"/>
	<polygon class="st0" points="48.1,8.1 34.1,0 27.1,0 46.3,11.1 	"/>
	<polygon class="st0" points="15.9,0 12.4,0 0,7.2 0,11.2 16.8,1.5 	"/>
	<polygon class="st0" points="27.1,5.3 0,21 0,25 28.8,8.4 	"/>
	<polygon class="st0" points="39,12.3 0,34.8 0,38.8 40.7,15.3 	"/>
	<polygon class="st0" points="39,26 0,48.5 0,52.6 40.7,29 	"/>
	<polygon class="st0" points="39,39.8 0,62.3 0,66.3 40.7,42.8 	"/>
	<polygon class="st0" points="39,53.6 0,76.1 0,80.1 40.7,56.6 	"/>
	<polygon class="st0" points="115.5,0 110.2,0 111.5,2.3 	"/>
	<polygon class="st0" points="123.6,9.2 139.4,0 132.5,0 121.8,6.1 	"/>
</g>
</svg>
