<?xml version="1.0" encoding="utf-8"?>
<!-- Generator: Adobe Illustrator 21.0.1, SVG Export Plug-In . SVG Version: 6.00 Build 0)  -->
<svg version="1.1" id="Layer_1" xmlns="http://www.w3.org/2000/svg" xmlns:xlink="http://www.w3.org/1999/xlink" x="0px" y="0px"
	 viewBox="0 0 34 27" style="enable-background:new 0 0 34 27;" xml:space="preserve">
<style type="text/css">
	.st0{fill:#E53030;}
	.st1{fill:#FFFFFF;}
</style>
<g>
	<g>
		<g>
			<rect x="0.4" y="5.8" class="st0" width="33.2" height="20.9"/>
		</g>
	</g>
	<g>
		<g>
			<polygon class="st1" points="16.4,14 19.4,18.6 14.3,16.6 19.6,15.2 16.1,19.4 			"/>
		</g>
		<g>
			<path class="st1" d="M15,19.4c-1,1.6-2.3,2.3-4.3,2.3c-3.1,0-5.5-2.5-5.5-5.5s2.5-5.5,5.5-5.5c2.3,0,4,1.1,4.9,3.1
				c-0.8-1.4-2-2-3.7-2c-2.5,0-4.5,2-4.5,4.5s2,4.5,4.5,4.5C13.3,20.8,14.2,20.5,15,19.4z"/>
		</g>
	</g>
</g>
</svg>
